HIERARCHY
ROOT hip
{
  OFFSET 0 0 0
  CHANNELS 6 Xposition Yposition Zposition Zrotation Yrotation Xrotation
  JOINT abdomen
  {
    OFFSET 0 20.6881 -0.73152
    CHANNELS 3 Zrotation Xrotation Yrotation
    JOINT chest
    {
      OFFSET 0 11.7043 -0.48768
      CHANNELS 3 Zrotation Xrotation Yrotation
      JOINT neck
      {
        OFFSET 0 22.1894 -2.19456
        CHANNELS 3 Zrotation Xrotation Yrotation
        JOINT head
        {
          OFFSET -0.24384 7.07133 1.2192
          CHANNELS 3 Zrotation Xrotation Yrotation
          JOINT leftEye
          {
            OFFSET 4.14528 8.04674 8.04672
            CHANNELS 3 Zrotation Xrotation Yrotation
            End Site
            {
              OFFSET 1 0 0
            }
          }
          JOINT rightEye
          {
            OFFSET -3.6576 8.04674 8.04672
            CHANNELS 3 Zrotation Xrotation Yrotation
            End Site
            {
              OFFSET 1 0 0
            }
          }
        }
      }
      JOINT rCollar
      {
        OFFSET -2.68224 19.2634 -4.8768
        CHANNELS 3 Zrotation Xrotation Yrotation
        JOINT rShldr
        {
          OFFSET -8.77824 -1.95073 1.46304
          CHANNELS 3 Zrotation Xrotation Yrotation
          JOINT rForeArm
          {
            OFFSET -28.1742 -1.7115 0.48768
            CHANNELS 3 Zrotation Xrotation Yrotation
            JOINT rHand
            {
              OFFSET -22.5879 0.773209 7.07136
              CHANNELS 3 Zrotation Xrotation Yrotation
              JOINT rThumb1
              {
                OFFSET -1.2192 -0.487915 3.41376
                CHANNELS 3 Zrotation Xrotation Yrotation
                JOINT rThumb2
                {
                  OFFSET -3.37035 -0.52449 3.41376
                  CHANNELS 3 Zrotation Xrotation Yrotation
                  End Site
                  {
                    OFFSET -1.78271 -1.18214 1.43049
                  }
                }
              }
              JOINT rIndex1
              {
                OFFSET -7.75947 0.938293 5.60832
                CHANNELS 3 Zrotation Xrotation Yrotation
                JOINT rIndex2
                {
                  OFFSET -2.54057 -0.884171 1.56538
                  CHANNELS 3 Zrotation Xrotation Yrotation
                  End Site
                  {
                    OFFSET -1.62519 -0.234802 1.16502
                  }
                }
              }
              JOINT rMid1
              {
                OFFSET -8.24714 1.18213 3.41376
                CHANNELS 3 Zrotation Xrotation Yrotation
                JOINT rMid2
                {
                  OFFSET -3.10165 -0.590103 1.0647
                  CHANNELS 3 Zrotation Xrotation Yrotation
                  End Site
                  {
                    OFFSET -2.48547 -0.328903 0.83742
                  }
                }
              }
              JOINT rRing1
              {
                OFFSET -8.82822 0.546677 1.51678
                CHANNELS 3 Zrotation Xrotation Yrotation
                JOINT rRing2
                {
                  OFFSET -2.60934 -0.819778 -0.0198488
                  CHANNELS 3 Zrotation Xrotation Yrotation
                  End Site
                  {
                    OFFSET -2.33842 -0.294052 0.168128
                  }
                }
              }
              JOINT rPinky1
              {
                OFFSET -8.27202 -0.0477905 -0.4584
                CHANNELS 3 Zrotation Xrotation Yrotation
                JOINT rPinky2
                {
                  OFFSET -1.82734 -0.647385 -0.700984
                  CHANNELS 3 Zrotation Xrotation Yrotation
                  End Site
                  {
                    OFFSET -1.69225 -0.51767 -0.607171
                  }
                }
              }
            }
          }
        }
      }
      JOINT lCollar
      {
        OFFSET 2.68224 19.2634 -4.8768
        CHANNELS 3 Zrotation Xrotation Yrotation
        JOINT lShldr
        {
          OFFSET 8.77824 -1.95073 1.46304
          CHANNELS 3 Zrotation Xrotation Yrotation
          JOINT lForeArm
          {
            OFFSET 28.1742 -1.7115 0.48768
            CHANNELS 3 Zrotation Xrotation Yrotation
            JOINT lHand
            {
              OFFSET 22.5879 0.773209 7.07136
              CHANNELS 3 Zrotation Xrotation Yrotation
              JOINT lThumb1
              {
                OFFSET 1.2192 -0.487915 3.41376
                CHANNELS 3 Zrotation Xrotation Yrotation
                JOINT lThumb2
                {
                  OFFSET 3.37035 -0.52449 3.41376
                  CHANNELS 3 Zrotation Xrotation Yrotation
                  End Site
                  {
                    OFFSET 1.78271 -1.18214 1.43049
                  }
                }
              }
              JOINT lIndex1
              {
                OFFSET 7.75947 0.938293 5.60832
                CHANNELS 3 Zrotation Xrotation Yrotation
                JOINT lIndex2
                {
                  OFFSET 2.54057 -0.884171 1.56538
                  CHANNELS 3 Zrotation Xrotation Yrotation
                  End Site
                  {
                    OFFSET 1.62519 -0.234802 1.16502
                  }
                }
              }
              JOINT lMid1
              {
                OFFSET 8.24714 1.18213 3.41376
                CHANNELS 3 Zrotation Xrotation Yrotation
                JOINT lMid2
                {
                  OFFSET 3.10165 -0.590103 1.0647
                  CHANNELS 3 Zrotation Xrotation Yrotation
                  End Site
                  {
                    OFFSET 2.48547 -0.328903 0.83742
                  }
                }
              }
              JOINT lRing1
              {
                OFFSET 8.82822 0.546677 1.51678
                CHANNELS 3 Zrotation Xrotation Yrotation
                JOINT lRing2
                {
                  OFFSET 2.60934 -0.819778 -0.0198488
                  CHANNELS 3 Zrotation Xrotation Yrotation
                  End Site
                  {
                    OFFSET 2.33842 -0.294052 0.168128
                  }
                }
              }
              JOINT lPinky1
              {
                OFFSET 8.27202 -0.0477905 -0.4584
                CHANNELS 3 Zrotation Xrotation Yrotation
                JOINT lPinky2
                {
                  OFFSET 1.82734 -0.647385 -0.700984
                  CHANNELS 3 Zrotation Xrotation Yrotation
                  End Site
                  {
                    OFFSET 1.69225 -0.51767 -0.607171
                  }
                }
              }
            }
          }
        }
      }
    }
  }
  JOINT rButtock
  {
    OFFSET -8.77824 4.35084 1.2192
    CHANNELS 3 Zrotation Xrotation Yrotation
    JOINT rThigh
    {
      OFFSET 0 -1.70687 -2.19456
      CHANNELS 3 Zrotation Xrotation Yrotation
      JOINT rShin
      {
        OFFSET 0 -36.8199 0.73152
        CHANNELS 3 Zrotation Xrotation Yrotation
        JOINT rFoot
        {
          OFFSET 0.73152 -45.1104 -5.12064
          CHANNELS 3 Zrotation Xrotation Yrotation
          End Site
          {
            OFFSET -1.1221 -3.69964 12.103
          }
        }
      }
    }
  }
  JOINT lButtock
  {
    OFFSET 8.77824 4.35084 1.2192
    CHANNELS 3 Zrotation Xrotation Yrotation
    JOINT lThigh
    {
      OFFSET 0 -1.70687 -2.19456
      CHANNELS 3 Zrotation Xrotation Yrotation
      JOINT lShin
      {
        OFFSET 0 -36.8199 0.73152
        CHANNELS 3 Zrotation Xrotation Yrotation
        JOINT lFoot
        {
          OFFSET -0.73152 -45.1104 -5.12064
          CHANNELS 3 Zrotation Xrotation Yrotation
          End Site
          {
            OFFSET 1.1221 -3.69964 12.103
          }
        }
      }
    }
  }
}
MOTION
Frames:	5
Frame Time:	0.03333
-75.84389999999999 70.3179 200.39419999999998 21.141858 -70.975649 -21.021765 -14.987891 11.843991 52.524698 -3.094872 -8.217383 -41.991626 -12.913635 32.041673 -117.266036 36.29588 24.545723 72.211736 -0.002858 -0.0 0.000682 0.002308 -0.0 -0.001259 -152.129055 14.112975 157.556084 101.623734 49.701986 -101.009112 31.643602 15.423515 2.943148 -102.840845 80.01479 87.947222 12.713887 -12.673841 -0.553656 3.848677 -13.266178 -12.702898 -148.88607 -12.609457 120.245512 3.953812 13.275514 -7.248089 -167.374421 -28.008251 145.271073 -167.057138 -15.979876 143.793885 -145.120889 1.975359 -179.748995 11.929878 36.625961 -4.841729 -154.000879 44.44848 -148.800969 -94.591906 -50.274787 -93.132161 130.42046 54.549347 -134.287937 165.455646 -15.358095 -98.256936 -125.837808 -7.748807 22.943298 60.042572 50.839722 -39.69581 176.296483 -13.919306 -89.719259 77.90396 7.973973 -24.848008 100.823234 37.73366 -85.162358 -85.575937 -66.233621 -38.343312 39.288688 53.366356 -32.877417 18.532171 42.992466 -15.100441 -0.001095 0.063817 -0.019749 156.48921 -25.092492 -174.788255 139.550983 -3.607297 136.694659 -2.306837 -0.782453 2.183297 -0.007297 -0.000602 -0.007297 -36.973176 -56.092541 -159.018972 -70.579436 -33.872286 -147.211301 -156.76793 4.464162 110.662442 0.002428 0.001567 0.002428 6.397794 6.092891 -0.554961 12.578813 41.082069 116.718843 -32.109299 -21.031933 -112.228673
-76.505 70.2268 200.6032 20.015246 -71.471356 -19.7711 -14.409695 9.076986 110.707429 -6.344508 -2.722079 -99.903199 -14.58014 31.413185 -109.417493 37.520198 21.91164 64.760899 -0.00234 0.0 -0.005592 -0.001431 0.0 -3.5e-05 3.622685 -61.421958 -12.829457 -97.768634 18.776092 144.298549 142.604831 20.651003 -178.664539 -174.188809 47.829585 150.315314 -179.374303 -16.876782 89.35953 -170.00472 -6.624651 93.599586 -2.757354 4.333076 1.625681 10.310114 1.149143 -0.356958 -159.364985 -2.685576 142.597293 2.391058 2.431106 0.701489 -0.021194 -1.72499 -0.543555 10.462223 0.117458 -0.05284 -146.226575 15.46946 -142.749366 -153.709851 30.584023 -145.204972 -3.749088 -33.331092 6.446598 156.115675 15.944868 120.97605 -106.809591 -86.095241 152.896328 12.3604 -24.860494 6.608594 12.304954 11.5151 -3.095314 25.085224 18.059323 -27.676979 -15.558756 -27.950561 5.750637 161.39597 -18.196752 -111.002716 164.637659 -19.283678 -144.733651 -2.33397 2.421882 -0.694653 70.379378 -72.13135 87.279232 149.935888 -26.428914 -179.920947 145.500057 13.104205 142.10977 -3.665256 3.56001 0.934533 0.0 0.00059 -0.000348 -35.581498 -55.50158 -128.480042 -71.380178 -18.548868 10.616016 11.268688 -0.346537 93.917213 179.99863 75.749052 0.001414 -141.93077 80.686073 -0.0 21.568662 24.27052 -95.956477 168.885561 -3.000502 -83.322922
-76.5614 70.01429999999999 200.4962 16.897238 -71.18551 -16.198183 -11.572989 11.948524 1.9498 2.974957 -8.612926 7.860004 -13.565128 21.079183 -47.514784 29.520135 -14.412628 11.204846 -0.001835 0.0 -0.002077 -0.001835 0.0 -0.002077 -6.04321 25.599005 7.234864 127.384554 -21.490868 124.840547 151.134962 -62.153368 98.589335 162.139231 -21.291844 145.617589 2.013015 -1.996431 -0.275038 -133.361407 -32.038431 117.76299 -173.761341 -52.872925 119.826551 96.987844 -69.662807 40.659597 -151.477295 17.842012 137.539283 -153.877827 19.91246 138.365244 -0.021757 -1.726005 -0.542741 -155.276146 -1.183041 171.993253 -1.203583 -3.047784 -1.114632 3.306041 2.152612 0.657373 159.221101 -48.380779 -170.492163 -122.520668 74.097761 -178.987956 116.372675 -66.300276 -97.646332 166.03341 -3.389685 -144.265657 68.482572 37.953009 -35.660006 138.354221 -29.016125 -85.70006 19.170122 24.115051 -13.379868 62.28824 48.366086 -45.293178 152.826088 14.793035 -138.514321 128.880491 51.842742 -118.097553 0.00124 -0.018546 0.005568 -7.45128 26.544735 -4.022786 44.067682 -47.785235 42.858591 146.157346 10.652223 142.892734 -0.000208 -0.000194 -0.0 -35.937787 -54.097405 -41.825454 -48.311457 62.642602 -42.456752 17.361324 61.886655 79.499012 0.0 -0.000194 0.000161 7.095912 3.163313 180.0 -2.552046 -45.385386 30.83073 109.839022 5.188558 163.386447
-75.9203 69.50659999999999 200.77519999999998 14.185186 -71.759198 -12.967153 -10.236781 11.6215 -0.0 3.036383 -8.494707 9.425968 5.879353 23.735178 82.790198 -36.357019 6.450569 -124.938459 -0.00075 0.0 -0.001709 -0.00075 0.0 -0.001709 -147.67118 29.084697 152.475386 -63.468418 -39.505043 -57.287144 -177.52825 -53.51274 -163.090329 -7.633351 42.475489 4.157618 -2.607641 2.554833 0.458163 -93.873439 16.069092 86.278247 -108.42828 34.160282 91.742068 3.94555 4.416006 -5.864809 173.126798 -66.298196 137.61642 -2.385067 14.677569 2.929682 -145.099144 -1.520942 -178.649833 -144.81042 -51.028293 -167.228782 -26.565113 -38.860486 -25.606373 -19.572238 -37.734168 -21.278117 -0.070779 -0.427858 0.094506 86.687921 -22.110375 143.488892 -3.503229 -3.17595 136.78881 157.886547 18.429184 -136.276806 2.608643 2.554577 -0.45637 127.72683 -23.809937 -112.86573 -2.326043 -3.867702 1.259825 60.611101 48.162545 -46.829833 156.472615 5.586626 -140.94372 88.618978 63.700794 -80.37989 75.405521 72.953808 -93.419806 -5.022218 29.724802 0.51161 124.850313 -29.037198 122.620138 150.235385 22.522527 144.285447 179.998299 75.749073 0.001755 161.281407 13.295432 -85.458433 -78.368134 -1.828483 -95.660927 146.244368 23.724345 175.971261 -179.997522 75.750706 -0.001696 -156.572646 74.840839 68.033037 47.2646 -1.885916 155.686462 -127.174159 45.377729 -150.56383
-73.8824 68.7153 201.3972 10.827042 -72.581965 -9.318045 -6.340105 9.137439 -107.310916 4.8221 2.327409 115.85586 6.709225 24.482146 83.112064 -38.699062 7.905766 -127.305585 0.002314 -0.0 -0.002587 -0.003009 -0.0 0.000297 3.269038 -26.755819 -5.241563 82.676866 -26.812708 63.122238 106.960407 -60.308226 57.600883 178.469131 14.297334 146.933342 -121.36523 30.330165 71.958051 -27.572454 -16.790537 28.969405 -27.610365 30.765269 20.255663 -101.489734 45.615447 76.989592 -36.036313 51.723088 29.832244 -17.883265 42.276767 14.545334 -0.022395 -1.725908 -0.543357 -156.209757 -46.245419 177.553024 -146.185589 15.331539 -142.712661 -9.639171 -23.314305 -12.071699 -0.118121 -0.71407 0.157698 -74.346775 9.616534 32.317261 -45.150266 37.469903 -83.456777 22.069852 10.193697 -2.605389 -51.059929 -41.203818 -12.856845 38.535526 25.939177 -9.186758 -37.215802 -57.917824 0.643726 -87.992112 -63.033405 -31.860469 160.098267 -4.901152 -142.968871 173.617137 -34.772204 -143.388193 78.570097 -72.040773 95.867579 52.950693 -81.959789 78.810659 -26.849474 80.011913 -10.22323 129.328004 -28.684293 126.20996 -179.978689 75.749029 -0.018804 162.519246 13.401199 3.826846 -29.254377 66.888823 -51.498457 155.803546 -12.116547 -84.386275 -179.998676 75.748328 -0.0 -163.541508 68.393105 -15.239085 28.41696 58.872274 114.921853 -21.485583 21.029587 -111.532847
